<?xml version="1.0" encoding="UTF-8"?>
<svg id="Layer_2" data-name="Layer 2" xmlns="http://www.w3.org/2000/svg" viewBox="0 0 609.45 407.49">
  <g id="ITERATION_01_ICONS" data-name="ITERATION 01 ICONS">
    <g>
      <polygon points="400.49 132.52 376.55 108.58 304.72 180.4 232.9 108.58 208.96 132.52 280.78 204.34 208.96 276.17 232.9 300.11 304.72 228.29 376.55 300.11 400.49 276.17 328.67 204.34 400.49 132.52"/>
      <g>
        <polygon points="609.45 68.24 609.45 35.18 542.32 35.18 542.32 0 474.52 0 474.52 35.18 135.46 35.18 135.46 0 68.01 0 68.01 35.18 0 35.18 0 68.24 609.45 68.24"/>
        <polygon points="0 339.25 0 375.27 39.75 375.27 68.01 375.27 68.01 407.49 135.46 407.49 135.46 375.27 474.52 375.27 474.52 407.49 542.32 407.49 542.32 375.27 609.45 375.27 609.45 339.25 0 339.25"/>
      </g>
    </g>
  </g>
</svg>