<?xml version="1.0" encoding="UTF-8"?>
<svg id="Layer_2" data-name="Layer 2" xmlns="http://www.w3.org/2000/svg" viewBox="0 0 325.98 407.35">
  <g id="ITERATION_01_ICONS" data-name="ITERATION 01 ICONS">
    <g>
      <g>
        <path d="M60.45,160.98l197.06,197.07c-24.87,29.78-62.28,48.73-104.12,48.73-74.89,0-135.6-60.71-135.6-135.6,0-12.58,1.71-24.76,4.93-36.33,2.86-10.32,6.92-20.15,12.01-29.32l2.38-4.13,23.34-40.42Z"/>
        <path d="M288.99,271.18c0,23.14-5.8,44.93-16.01,63.98L74.49,136.67,153.4,0l116.32,201.46,2.55,4.43c4.99,9.08,8.97,18.78,11.8,28.97,3.21,11.57,4.93,23.75,4.93,36.33Z"/>
      </g>
      <polygon points="19.17 81.36 74.49 136.67 60.45 160.98 0 100.53 19.17 81.36"/>
      <path d="M325.98,388.17l-19.17,19.18-49.3-49.3c5.9-7.06,11.09-14.72,15.47-22.88l53,53Z"/>
    </g>
  </g>
</svg>