<?xml version="1.0" encoding="UTF-8"?>
<svg id="Layer_2" data-name="Layer 2" xmlns="http://www.w3.org/2000/svg" viewBox="0 0 546.58 425.2">
  <g id="ITERATION_01_ICONS" data-name="ITERATION 01 ICONS">
    <g>
      <path d="M526.39,372.5c-9.05-15.57-21.44-36.89-47.38-36.89s-38.33,21.32-47.38,36.89c-8.39,14.44-13.12,21.24-20.19,21.24s-11.8-6.8-20.19-21.24c-9.05-15.57-21.44-36.89-47.38-36.89s-38.33,21.32-47.38,36.89c-8.39,14.44-13.12,21.24-20.19,21.24s-11.79-6.8-20.19-21.24c-9.05-15.57-21.44-36.89-47.38-36.89s-38.33,21.32-47.38,36.89c-8.39,14.44-13.12,21.24-20.19,21.24s-11.8-6.8-20.19-21.24c-9.05-15.57-21.44-36.89-47.38-36.89v-31.96L0,350.04l73.61,46.39v-29.36c7.07,0,11.8,6.8,20.19,21.24,9.05,15.57,21.44,36.89,47.38,36.89s38.33-21.32,47.38-36.89c8.39-14.44,13.12-21.24,20.19-21.24s11.79,6.8,20.18,21.24c9.05,15.57,21.44,36.89,47.38,36.89s38.33-21.32,47.38-36.89c8.39-14.44,13.12-21.24,20.19-21.24s11.8,6.8,20.19,21.24c9.05,15.57,21.44,36.89,47.38,36.89s38.33-21.32,47.38-36.89c8.39-14.44,13.12-21.24,20.19-21.24s11.8,6.8,20.19,21.24c9.05,15.57,21.44,36.89,47.38,36.89v-31.45c-7.07,0-11.8-6.8-20.19-21.24Z"/>
      <path d="M526.39,220.68c-9.05-15.57-21.44-36.89-47.38-36.89s-38.33,21.32-47.38,36.89c-8.39,14.44-13.12,21.24-20.19,21.24s-11.8-6.8-20.19-21.24c-9.05-15.57-21.44-36.89-47.38-36.89s-38.33,21.32-47.38,36.89c-8.39,14.44-13.12,21.24-20.19,21.24s-11.79-6.8-20.19-21.24c-9.05-15.57-21.44-36.89-47.38-36.89s-38.33,21.32-47.38,36.89c-8.39,14.44-13.12,21.24-20.19,21.24s-11.8-6.8-20.19-21.24c-9.05-15.57-21.44-36.89-47.38-36.89v-31.96L0,198.21l73.61,46.39v-29.36c7.07,0,11.8,6.8,20.19,21.24,9.05,15.57,21.44,36.89,47.38,36.89s38.33-21.32,47.38-36.89c8.39-14.44,13.12-21.24,20.19-21.24s11.79,6.8,20.18,21.24c9.05,15.57,21.44,36.89,47.38,36.89s38.33-21.32,47.38-36.89c8.39-14.44,13.12-21.24,20.19-21.24s11.8,6.8,20.19,21.24c9.05,15.57,21.44,36.89,47.38,36.89s38.33-21.32,47.38-36.89c8.39-14.44,13.12-21.24,20.19-21.24s11.8,6.8,20.19,21.24c9.05,15.57,21.44,36.89,47.38,36.89v-31.45c-7.07,0-11.8-6.8-20.19-21.24Z"/>
      <path d="M526.39,68.85c-9.05-15.57-21.44-36.89-47.38-36.89s-38.33,21.32-47.38,36.89c-8.39,14.44-13.12,21.24-20.19,21.24s-11.8-6.8-20.19-21.24c-9.05-15.57-21.44-36.89-47.38-36.89s-38.33,21.32-47.38,36.89c-8.39,14.44-13.12,21.24-20.19,21.24s-11.79-6.8-20.19-21.24c-9.05-15.57-21.44-36.89-47.38-36.89s-38.33,21.32-47.38,36.89c-8.39,14.44-13.12,21.24-20.19,21.24s-11.8-6.8-20.19-21.24c-9.05-15.57-21.44-36.89-47.38-36.89V0L0,46.39l73.61,46.39v-29.36c7.07,0,11.8,6.8,20.19,21.24,9.05,15.57,21.44,36.89,47.38,36.89s38.33-21.32,47.38-36.89c8.39-14.44,13.12-21.24,20.19-21.24s11.79,6.8,20.18,21.24c9.05,15.57,21.44,36.89,47.38,36.89s38.33-21.32,47.38-36.89c8.39-14.44,13.12-21.24,20.19-21.24s11.8,6.8,20.19,21.24c9.05,15.57,21.44,36.89,47.38,36.89s38.33-21.32,47.38-36.89c8.39-14.44,13.12-21.24,20.19-21.24s11.8,6.8,20.19,21.24c9.05,15.57,21.44,36.89,47.38,36.89v-31.45c-7.07,0-11.8-6.8-20.19-21.24Z"/>
    </g>
  </g>
</svg>