<?xml version="1.0" encoding="UTF-8"?>
<svg id="Layer_2" data-name="Layer 2" xmlns="http://www.w3.org/2000/svg" viewBox="0 0 377.95 425.2">
  <g id="ITERATION_01_ICONS" data-name="ITERATION 01 ICONS">
    <g>
      <path d="M354.14,260.14v-94.49h0c0-52.18-42.3-94.49-94.49-94.49h-47.06v-23.62h-23.62v23.62h-47.24V23.62h23.62V0H47.24v23.62h23.62v47.54H23.62v-23.62H0v141.73h23.62v-23.62h165.35v23.62h23.62v-23.62h23.43c6.53,0,12.43,2.64,16.71,6.92,4.27,4.28,6.92,10.18,6.92,16.7v70.87h-23.44v23.62h141.73v-23.62h-23.81Z"/>
      <path d="M346.45,385.82c0,21.75-17.62,39.37-39.37,39.37s-39.37-17.63-39.37-39.37c0-3.66.5-7.19,1.43-10.55.8-2.88,1.92-5.64,3.32-8.22l.95-1.65,33.67-58.32,33.67,58.32.95,1.65c1.4,2.57,2.52,5.33,3.32,8.22.93,3.36,1.43,6.89,1.43,10.55Z"/>
    </g>
  </g>
</svg>