<?xml version="1.0" encoding="UTF-8"?>
<svg id="Layer_2" data-name="Layer 2" xmlns="http://www.w3.org/2000/svg" viewBox="0 0 609.45 343.4">
  <g id="ITERATION_01_ICONS" data-name="ITERATION 01 ICONS">
    <g>
      <path d="M533.26,343.4c-26.37,0-40.5-12.92-50.81-22.36-8.51-7.78-13.65-12.48-25.37-12.48s-16.86,4.7-25.37,12.48c-10.32,9.44-24.45,22.36-50.81,22.36s-40.49-12.92-50.81-22.36c-8.51-7.78-13.64-12.48-25.37-12.48s-16.86,4.7-25.37,12.48c-10.32,9.44-24.45,22.36-50.81,22.36s-40.49-12.92-50.81-22.36c-8.51-7.78-13.64-12.48-25.37-12.48s-16.86,4.7-25.37,12.48c-10.32,9.44-24.45,22.36-50.81,22.36s-40.49-12.92-50.81-22.36c-8.51-7.78-13.64-12.48-25.37-12.48v-37.7c26.36,0,40.49,12.92,50.81,22.36,8.51,7.78,13.64,12.48,25.37,12.48s16.86-4.7,25.37-12.48c10.32-9.44,24.45-22.36,50.81-22.36s40.49,12.92,50.81,22.36c8.51,7.78,13.64,12.48,25.37,12.48s16.86-4.7,25.37-12.48c10.32-9.44,24.45-22.36,50.81-22.36s40.5,12.92,50.81,22.36c8.51,7.78,13.64,12.48,25.37,12.48s16.86-4.7,25.37-12.48c10.32-9.44,24.45-22.36,50.81-22.36s40.5,12.92,50.81,22.36c8.51,7.78,13.65,12.48,25.37,12.48s16.86-4.7,25.37-12.48c10.32-9.44,24.45-22.36,50.81-22.36v37.7c-11.73,0-16.86,4.7-25.37,12.48-10.32,9.44-24.45,22.36-50.81,22.36Z"/>
      <path d="M533.26,207.97c-26.37,0-40.5-12.92-50.81-22.36-8.51-7.78-13.65-12.48-25.37-12.48s-16.86,4.7-25.37,12.48c-10.32,9.44-24.45,22.36-50.81,22.36s-40.49-12.92-50.81-22.36c-8.51-7.78-13.64-12.48-25.37-12.48s-16.86,4.7-25.37,12.48c-10.32,9.44-24.45,22.36-50.81,22.36s-40.49-12.92-50.81-22.36c-8.51-7.78-13.64-12.48-25.37-12.48s-16.86,4.7-25.37,12.48c-10.32,9.44-24.45,22.36-50.81,22.36s-40.49-12.92-50.81-22.36c-8.51-7.78-13.64-12.48-25.37-12.48v-37.7c26.36,0,40.49,12.92,50.81,22.36,8.51,7.78,13.64,12.48,25.37,12.48s16.86-4.7,25.37-12.48c10.32-9.44,24.45-22.36,50.81-22.36s40.49,12.92,50.81,22.36c8.51,7.78,13.64,12.48,25.37,12.48s16.86-4.7,25.37-12.48c10.32-9.44,24.45-22.36,50.81-22.36s40.5,12.92,50.81,22.36c8.51,7.78,13.64,12.48,25.37,12.48s16.86-4.7,25.37-12.48c10.32-9.44,24.45-22.36,50.81-22.36s40.5,12.92,50.81,22.36c8.51,7.78,13.65,12.48,25.37,12.48s16.86-4.7,25.37-12.48c10.32-9.44,24.45-22.36,50.81-22.36v37.7c-11.73,0-16.86,4.7-25.37,12.48-10.32,9.44-24.45,22.36-50.81,22.36Z"/>
      <path d="M533.26,72.54c-26.37,0-40.5-12.92-50.81-22.36-8.51-7.78-13.65-12.48-25.37-12.48s-16.86,4.7-25.37,12.48c-10.32,9.44-24.45,22.36-50.81,22.36s-40.49-12.92-50.81-22.36c-8.51-7.78-13.64-12.48-25.37-12.48s-16.86,4.7-25.37,12.48c-10.32,9.44-24.45,22.36-50.81,22.36s-40.49-12.92-50.81-22.36c-8.51-7.78-13.64-12.48-25.37-12.48s-16.86,4.7-25.37,12.48c-10.32,9.44-24.45,22.36-50.81,22.36s-40.49-12.92-50.81-22.36c-8.51-7.78-13.64-12.48-25.37-12.48V0c26.36,0,40.49,12.92,50.81,22.36,8.51,7.78,13.64,12.48,25.37,12.48s16.86-4.7,25.37-12.48C111.86,12.92,125.99,0,152.36,0s40.49,12.92,50.81,22.36c8.51,7.78,13.64,12.48,25.37,12.48s16.86-4.7,25.37-12.48c10.32-9.44,24.45-22.36,50.81-22.36s40.5,12.92,50.81,22.36c8.51,7.78,13.64,12.48,25.37,12.48s16.86-4.7,25.37-12.48c10.32-9.44,24.45-22.36,50.81-22.36s40.5,12.92,50.81,22.36c8.51,7.78,13.65,12.48,25.37,12.48s16.86-4.7,25.37-12.48c10.32-9.44,24.45-22.36,50.81-22.36v37.7c-11.73,0-16.86,4.7-25.37,12.48-10.32,9.44-24.45,22.36-50.81,22.36Z"/>
    </g>
  </g>
</svg>