<?xml version="1.0" encoding="UTF-8"?>
<svg id="Layer_2" data-name="Layer 2" xmlns="http://www.w3.org/2000/svg" viewBox="0 0 609.45 407.36">
  <g id="ITERATION_01_ICONS" data-name="ITERATION 01 ICONS">
    <path d="M542.32,35.27V0h-67.8v35.27H135.46V0h-67.44v35.27H0v339.78h68.01v32.31h67.44v-32.31h74.78c12.3-3.42,20.44-12.37,25.64-29.1,15.58-50.1,32.55-99.7,49-149.46,2.88-8.66,6.26-17.15,10.36-28.21,9.19,15.22,16.47,27.97,24.39,40.19,9.77,15.16,22.64,17.82,37.04,9.08,6.46-3.91,12.42-8.91,18.51-13.49,22.41-16.64,44.83-33.37,69.07-51.34-5.21,33.54-17.78,55.5-44.82,65.25-11.47,4.16-21.9,12.07-32.77,18.3-57.99,33.46-50.86,18.89-51.23,94.62-.1,29.48,4.21,40.67,22.39,44.17h136.69v32.31h67.8v-32.31h67.13V35.27h-67.13Z"/>
  </g>
</svg>