<?xml version="1.0" encoding="UTF-8"?>
<svg id="Layer_2" data-name="Layer 2" xmlns="http://www.w3.org/2000/svg" viewBox="0 0 609.45 407.49">
  <g id="ITERATION_01_ICONS" data-name="ITERATION 01 ICONS">
    <g>
      <g>
        <polygon points="609.45 68.24 609.45 35.18 542.32 35.18 542.32 0 474.52 0 474.52 35.18 135.46 35.18 135.46 0 68.01 0 68.01 35.18 0 35.18 0 68.24 609.45 68.24"/>
        <polygon points="0 339.25 0 375.27 39.75 375.27 68.01 375.27 68.01 407.49 135.46 407.49 135.46 375.27 474.52 375.27 474.52 407.49 542.32 407.49 542.32 375.27 609.45 375.27 609.45 339.25 0 339.25"/>
      </g>
      <g>
        <path d="M100.66,99.71l19.72,78.17,22.44-78.17h49.87v208.07h-36.87v-61.59l1.71-97.32-27.29,90.31h-19.86l-24.44-86.46,1.71,93.46v61.59h-36.87V99.71h49.87Z"/>
        <path d="M329.3,264.34h-62.45l-12.29,43.44h-42.3l68.16-208.07h36.44l66.88,208.07h-42.3l-12.15-43.44ZM276.72,230.18h43.16l-21.29-76.6-21.86,76.6Z"/>
        <path d="M473.06,174.31l37.01-74.59h47.16l-58.59,103.18,60.02,104.89h-46.87l-38.15-75.74-38.01,75.74h-47.44l60.02-104.89-58.45-103.18h46.87l36.44,74.59Z"/>
      </g>
    </g>
  </g>
</svg>