<?xml version="1.0" encoding="UTF-8"?>
<svg id="Layer_2" data-name="Layer 2" xmlns="http://www.w3.org/2000/svg" viewBox="0 0 425.2 425.2">
  <g id="ITERATION_01_ICONS" data-name="ITERATION 01 ICONS">
    <polygon points="415.26 226.3 415.26 198.89 387.26 198.89 425.2 158.95 405.32 140.07 349.45 198.89 245.69 198.89 319.06 125.52 400.16 127.61 400.86 100.2 345.79 98.79 365.59 78.99 346.21 59.6 326.41 79.4 324.99 24.33 297.59 25.04 299.68 106.14 226.3 179.51 226.3 75.75 285.12 19.87 266.25 0 226.3 37.94 226.3 9.94 198.89 9.94 198.89 37.94 158.95 0 140.07 19.87 198.89 75.75 198.89 179.51 125.52 106.14 127.61 25.04 100.2 24.33 98.79 79.4 78.99 59.6 59.6 78.99 79.4 98.79 24.33 100.2 25.04 127.61 106.14 125.52 179.51 198.89 75.75 198.89 19.87 140.07 0 158.95 37.94 198.89 9.94 198.89 9.94 226.3 37.94 226.3 0 266.25 19.87 285.12 75.75 226.3 179.51 226.3 106.14 299.68 25.04 297.59 24.33 324.99 79.4 326.41 59.6 346.21 78.99 365.59 98.79 345.79 100.2 400.86 127.61 400.16 125.52 319.06 198.89 245.69 198.89 349.45 140.07 405.32 158.95 425.2 198.89 387.26 198.89 415.26 226.3 415.26 226.3 387.26 266.25 425.2 285.12 405.32 226.3 349.45 226.3 245.69 299.68 319.06 297.59 400.16 324.99 400.86 326.41 345.79 346.21 365.59 365.59 346.21 345.79 326.41 400.86 324.99 400.16 297.59 319.06 299.68 245.69 226.3 349.45 226.3 405.32 285.12 425.2 266.25 387.26 226.3 415.26 226.3"/>
  </g>
</svg>