<svg width="45" height="40" viewBox="0 0 45 40" fill="none" xmlns="http://www.w3.org/2000/svg">
<path d="M12.7234 25.7956H28.104V20.8437H12.7234V25.7956Z" stroke="#DCDCDC" stroke-width="2.07413"/>
<path d="M26.1765 11.199C26.6243 11.3393 27.0555 11.5276 27.4642 11.7579C28.0595 12.0932 28.6109 12.5179 29.7628 13.6396C29.7628 13.6396 30.3184 14.38 30.786 15.1759C31.4149 16.2465 31.8831 17.4251 32.2116 18.6281C32.4306 19.43 32.5875 20.2428 32.689 21.0686C32.7906 21.8944 32.8369 22.7332 32.8257 23.5696C32.8173 24.1925 32.7772 24.8149 32.6353 26.0468C32.6353 26.0468 32.5335 26.6562 32.172 28.2706C32.172 28.2706 31.8522 29.2684 31.1779 30.7742C31.1779 30.7742 30.8884 31.3185 30.5567 31.8378C29.8449 32.9522 28.9342 33.9501 27.8336 34.6588C27.4926 34.8784 27.1341 35.0686 26.6315 35.2805C26.6315 35.2805 26.5038 35.33 26.2193 35.4288C26.2193 35.4288 26.0626 35.478 25.8122 35.5446C25.8122 35.5446 25.7263 35.5656 25.3708 35.6441C25.3708 35.6441 25.078 35.6907 24.7624 35.7136C24.6955 35.7184 24.6276 35.7222 20.4157 35.7249C15.748 35.7043 15.2015 35.613 14.6508 35.4405C14.2182 35.3049 13.78 35.1165 13.363 34.8816C12.8555 34.5957 12.3687 34.2401 11.9017 33.8103C11.8969 33.8059 11.892 33.8014 11.8872 33.7969C11.8797 33.79 11.8723 33.7831 11.8648 33.7762C11.8167 33.7314 11.7694 33.6863 11.7227 33.6409C10.9976 32.9348 10.4494 32.1583 10.0413 31.4636C9.82396 31.0937 9.64605 30.7455 9.50119 30.4374C9.50022 30.4353 9.49919 30.4332 9.49822 30.4311C9.14416 29.6771 8.84739 28.8601 8.61566 28.0114C8.40045 27.2233 8.24125 26.4086 8.13822 25.5709C8.03681 24.7465 7.99055 23.8948 8.0016 23.0699C8.0101 22.4355 8.05147 21.8125 8.12103 21.2086C8.19366 20.5781 8.29713 19.9682 8.42931 19.3779C8.66715 18.3158 8.99566 17.3251 9.39651 16.43C9.65717 15.8479 9.94888 15.3053 10.2705 14.8017C10.6195 14.2554 11.001 13.7594 11.4172 13.3125C11.8869 12.8081 12.413 12.3546 12.9937 11.9807C13.3498 11.7514 13.7333 11.554 14.0701 11.4119C14.2062 11.3546 14.3365 11.305 14.4657 11.2601C14.516 11.2426 14.566 11.2259 14.6148 11.2102C14.6162 11.2097 14.6176 11.2093 14.619 11.2089C14.6216 11.208 14.6241 11.2072 14.6266 11.2064C14.7195 11.1767 14.8214 11.1464 14.9316 11.1171C15.0131 11.0954 15.099 11.0743 15.1898 11.0543C15.4279 11.0017 15.6995 10.9561 15.9993 10.931C16.021 10.9292 16.0429 10.9275 16.0649 10.9259C16.073 10.9253 16.0811 10.9247 16.0892 10.9242C16.1493 10.9201 16.2105 10.9168 20.4157 10.9146C25.1082 10.9367 25.6537 11.0352 26.1765 11.199Z" stroke="#DCDCDC" stroke-width="2.07413"/>
<path d="M16.2725 39.6341V35.725H24.5589V39.6341H16.2725Z" fill="#DCDCDC" stroke="#DCDCDC" stroke-width="0.365854"/>
<path d="M16.2725 10.9139V6.99997H24.5589V10.9143L16.2725 10.9139Z" fill="#DCDCDC" stroke="#DCDCDC" stroke-width="0.365854"/>
<path d="M37.1986 8.32197C38.8655 10.2397 39.7319 12.7245 39.6188 15.2629C39.6077 15.4562 39.7544 15.6224 39.9476 15.6354L41.8269 15.7581C41.9248 15.7646 42.0213 15.7318 42.095 15.667C42.1687 15.6022 42.2135 15.5107 42.2195 15.4128C42.5444 8.72615 37.5419 2.9714 30.8751 2.36253C30.7773 2.3548 30.6804 2.38638 30.6059 2.45027C30.5314 2.51417 30.4855 2.60511 30.4782 2.70298L30.3385 4.58133C30.3243 4.77453 30.4685 4.94306 30.6616 4.95884C33.1912 5.20015 35.5315 6.40415 37.1986 8.32197V8.32197Z" fill="#DCDCDC"/>
<path d="M33.9139 11.1774C34.8299 12.231 35.3215 13.5875 35.2932 14.9832C35.2846 15.1761 35.4314 15.3406 35.624 15.354L37.5023 15.4756C37.601 15.4821 37.6982 15.4489 37.7722 15.3832C37.8462 15.3176 37.8908 15.225 37.896 15.1262C38.0409 10.8248 34.8392 7.14172 30.5595 6.68655C30.4609 6.67792 30.363 6.70922 30.2877 6.77344C30.2125 6.83765 30.1661 6.92939 30.159 7.02809L30.0178 8.90472C30.0042 9.09731 30.1467 9.2656 30.3389 9.28399C31.7241 9.4501 32.9982 10.1249 33.9139 11.1774Z" fill="#DCDCDC"/>
</svg>
