<svg width="21" height="17" viewBox="0 0 21 17" fill="none" xmlns="http://www.w3.org/2000/svg">
<path d="M2.1 16.6909C1.5225 16.6909 1.0283 16.4868 0.6174 16.0786C0.2058 15.6696 0 15.1783 0 14.6045V2.08636C0 1.51261 0.2058 1.02162 0.6174 0.613391C1.0283 0.204463 1.5225 0 2.1 0H18.9C19.4775 0 19.972 0.204463 20.3836 0.613391C20.7945 1.02162 21 1.51261 21 2.08636V14.6045C21 15.1783 20.7945 15.6696 20.3836 16.0786C19.972 16.4868 19.4775 16.6909 18.9 16.6909H2.1ZM10.5 9.38864L2.1 4.17273V14.6045H18.9V4.17273L10.5 9.38864ZM10.5 7.30227L18.9 2.08636H2.1L10.5 7.30227ZM2.1 4.17273V2.08636V14.6045V4.17273Z" fill="#A9A9A9"/>
</svg>
