<svg width="204" height="270" viewBox="0 0 204 270" fill="none" xmlns="http://www.w3.org/2000/svg">
<path d="M40.0503 155.757H163.951V114.985H40.0503V155.757Z" stroke="#2296F1" stroke-width="3"/>
<path d="M148.423 35.5714C152.031 36.7269 155.505 38.2772 158.797 40.1731C163.592 42.9344 168.034 46.4312 177.313 55.6662C177.313 55.6662 181.789 61.7629 185.556 68.3161C190.622 77.1308 194.394 86.8353 197.04 96.7401C198.804 103.343 200.068 110.035 200.886 116.835C201.704 123.634 202.077 130.54 201.987 137.427C201.92 142.555 201.596 147.681 200.453 157.823C200.453 157.823 199.633 162.841 196.721 176.133C196.721 176.133 194.145 184.349 188.713 196.748C188.713 196.748 186.381 201.229 183.709 205.505C177.975 214.68 170.638 222.896 161.773 228.732C159.025 230.54 156.137 232.106 152.089 233.851C152.089 233.851 151.06 234.259 148.768 235.072C148.768 235.072 147.506 235.477 145.489 236.025C145.489 236.025 144.797 236.198 141.933 236.844C141.933 236.844 139.575 237.228 137.032 237.417C136.493 237.457 135.946 237.488 102.016 237.51C64.4154 237.34 60.0126 236.589 55.5765 235.168C52.0914 234.052 48.5615 232.501 45.2026 230.566C41.1138 228.212 37.1927 225.285 33.431 221.746C33.3921 221.709 33.3528 221.672 33.3138 221.635C33.2537 221.579 33.1937 221.522 33.1338 221.465C32.7464 221.096 32.3648 220.724 31.989 220.35C26.1473 214.537 21.7317 208.144 18.4438 202.423C16.6932 199.378 15.26 196.511 14.093 193.974C14.0853 193.957 14.0769 193.94 14.0692 193.922C11.217 187.714 8.82626 180.987 6.95952 173.999C5.22591 167.51 3.94341 160.802 3.11342 153.905C2.29653 147.117 1.92388 140.104 2.01289 133.313C2.08134 128.089 2.41461 122.96 2.97496 117.988C3.56009 112.796 4.39358 107.774 5.45838 102.914C7.37429 94.1692 10.0207 86.0118 13.2498 78.6415C15.3495 73.8488 17.6995 69.381 20.2907 65.2346C23.1016 60.7367 26.1752 56.6532 29.5275 52.9737C33.3117 48.8199 37.5498 45.0864 42.2271 42.0078C45.0958 40.1196 48.1852 38.4943 50.8988 37.3248C51.9951 36.8523 53.0443 36.4439 54.0855 36.0744C54.4907 35.9306 54.8932 35.7932 55.2865 35.6639C55.2976 35.6599 55.3093 35.6564 55.3204 35.6526C55.3409 35.6459 55.3615 35.6393 55.3818 35.6326C56.1299 35.3882 56.951 35.1381 57.8382 34.8969C58.4948 34.7183 59.1874 34.5448 59.9188 34.3798C61.8363 33.9471 64.0248 33.5713 66.4392 33.365C66.6142 33.3501 66.7904 33.336 66.9677 33.3229C67.0328 33.3178 67.0982 33.3134 67.1636 33.3088C67.6479 33.275 68.1405 33.2479 102.016 33.2297C139.817 33.412 144.212 34.2228 148.423 35.5714Z" stroke="#2296F1" stroke-width="4"/>
<path d="M68.6407 269.697V237.511H135.394V269.697H68.6407Z" fill="#2296F1" stroke="#2296F1" stroke-width="0.2466"/>
<path d="M68.6407 33.2262V0.999985H135.394V33.2291L68.6407 33.2262Z" fill="#2296F1" stroke="#2296F1" stroke-width="0.2466"/>
<path d="M26.8781 158.913H19.3914L19.3913 134.695H13.3521L23.1347 111.275L32.9173 134.695H26.878L26.8781 158.913Z" fill="#2296F1"/>
</svg>
