<svg width="253" height="158" viewBox="0 0 253 158" fill="none" xmlns="http://www.w3.org/2000/svg">
<path d="M32.041 157H29.6875L25.0684 147.215L25.0586 157H22.6855V142.781H25.0684L29.6582 152.527L29.6777 142.781H32.041V157ZM45.7117 150.838C45.7117 151.411 45.6596 151.964 45.5555 152.498C45.4578 153.032 45.3146 153.536 45.1258 154.012C44.924 154.487 44.6733 154.926 44.3738 155.33C44.0743 155.727 43.7293 156.069 43.3387 156.355C42.9611 156.616 42.5411 156.821 42.0789 156.971C41.6232 157.12 41.1219 157.195 40.575 157.195C40.0086 157.195 39.4878 157.117 39.0125 156.961C38.5438 156.798 38.1238 156.577 37.7527 156.297C37.3751 156.01 37.0431 155.665 36.7566 155.262C36.4767 154.858 36.2423 154.415 36.0535 153.934C35.8712 153.471 35.7345 152.98 35.6434 152.459C35.5522 151.932 35.5066 151.391 35.5066 150.838V148.963C35.5066 148.383 35.5555 147.824 35.6531 147.283C35.7508 146.743 35.8973 146.232 36.0926 145.75C36.2814 145.288 36.5125 144.865 36.7859 144.48C37.0659 144.09 37.3947 143.751 37.7723 143.465C38.1368 143.185 38.5503 142.97 39.0125 142.82C39.4813 142.664 39.9956 142.586 40.5555 142.586C41.1219 142.586 41.6427 142.664 42.118 142.82C42.5932 142.977 43.0197 143.195 43.3973 143.475C43.7749 143.755 44.1036 144.083 44.3836 144.461C44.6635 144.839 44.8979 145.252 45.0867 145.701C45.2951 146.183 45.4513 146.701 45.5555 147.254C45.6596 147.801 45.7117 148.37 45.7117 148.963V150.838ZM43.3484 148.943C43.3419 148.585 43.3191 148.234 43.2801 147.889C43.2475 147.544 43.1889 147.215 43.1043 146.902C43.0066 146.544 42.8764 146.219 42.7137 145.926C42.5574 145.626 42.3654 145.372 42.1375 145.164C41.9357 144.982 41.7046 144.839 41.4441 144.734C41.1837 144.63 40.8875 144.578 40.5555 144.578C40.2365 144.578 39.95 144.63 39.6961 144.734C39.4422 144.832 39.2208 144.969 39.032 145.145C38.8042 145.359 38.6121 145.617 38.4559 145.916C38.2996 146.209 38.1792 146.538 38.0945 146.902C38.0164 147.215 37.9578 147.547 37.9188 147.898C37.8862 148.243 37.8699 148.592 37.8699 148.943V150.838C37.8699 151.183 37.8862 151.525 37.9188 151.863C37.9513 152.202 38.0066 152.527 38.0848 152.84C38.1694 153.191 38.2833 153.52 38.4266 153.826C38.5763 154.126 38.7553 154.38 38.9637 154.588C39.1655 154.783 39.3966 154.939 39.657 155.057C39.924 155.167 40.2299 155.223 40.575 155.223C40.907 155.223 41.2065 155.167 41.4734 155.057C41.7469 154.946 41.9813 154.796 42.1766 154.607C42.4044 154.393 42.5932 154.139 42.743 153.846C42.8992 153.546 43.0229 153.217 43.1141 152.859C43.1922 152.547 43.2475 152.221 43.2801 151.883C43.3191 151.538 43.3419 151.189 43.3484 150.838V148.943ZM70.8559 150.623H64.977V155.066H71.8422V157H62.6234V142.781H71.7934V144.725H64.977V148.729H70.8559V150.623ZM84.8879 157H82.5344L77.9152 147.215L77.9055 157H75.5324V142.781H77.9152L82.5051 152.527L82.5246 142.781H84.8879V157ZM99.0078 144.725H94.623V157H92.2891V144.725H87.9336V142.781H99.0078V144.725ZM106.907 151.482H104.505V157H102.161V142.781H106.673C107.408 142.788 108.085 142.882 108.704 143.064C109.322 143.247 109.856 143.514 110.305 143.865C110.748 144.223 111.093 144.669 111.341 145.203C111.588 145.73 111.712 146.349 111.712 147.059C111.712 147.547 111.647 147.99 111.516 148.387C111.393 148.784 111.217 149.142 110.989 149.461C110.761 149.78 110.488 150.06 110.169 150.301C109.85 150.542 109.495 150.75 109.104 150.926L112.141 156.873V157H109.632L106.907 151.482ZM104.505 149.568H106.702C107.119 149.562 107.493 149.5 107.825 149.383C108.164 149.259 108.45 149.083 108.684 148.855C108.893 148.66 109.055 148.419 109.173 148.133C109.29 147.846 109.348 147.521 109.348 147.156C109.348 146.746 109.283 146.388 109.153 146.082C109.029 145.77 108.844 145.509 108.596 145.301C108.369 145.105 108.092 144.959 107.766 144.861C107.441 144.757 107.076 144.702 106.673 144.695H104.505V149.568ZM115.695 142.781H124.074V144.725H121.037V155.066H124.074V157H115.695V155.066H118.664V144.725H115.695V142.781ZM136.914 150.623H131.036V155.066H137.901V157H128.682V142.781H137.852V144.725H131.036V148.729H136.914V150.623ZM149.179 153.338C149.179 153.006 149.111 152.713 148.974 152.459C148.837 152.205 148.645 151.977 148.398 151.775C148.137 151.587 147.828 151.417 147.47 151.268C147.118 151.111 146.724 150.971 146.288 150.848C145.618 150.659 144.999 150.428 144.433 150.154C143.873 149.874 143.394 149.562 142.997 149.217C142.6 148.865 142.288 148.468 142.06 148.025C141.838 147.576 141.728 147.072 141.728 146.512C141.728 145.906 141.858 145.363 142.118 144.881C142.379 144.393 142.73 143.976 143.173 143.631C143.616 143.292 144.13 143.035 144.716 142.859C145.308 142.677 145.93 142.586 146.581 142.586C147.271 142.586 147.913 142.693 148.505 142.908C149.104 143.117 149.625 143.41 150.068 143.787C150.51 144.171 150.859 144.63 151.113 145.164C151.373 145.691 151.503 146.277 151.503 146.922H149.179C149.146 146.564 149.068 146.238 148.945 145.945C148.827 145.646 148.661 145.389 148.446 145.174C148.225 144.965 147.955 144.803 147.636 144.686C147.323 144.562 146.962 144.5 146.552 144.5C146.194 144.5 145.862 144.549 145.556 144.646C145.256 144.738 144.996 144.868 144.775 145.037C144.553 145.213 144.381 145.424 144.257 145.672C144.133 145.919 144.071 146.196 144.071 146.502C144.078 146.827 144.163 147.114 144.325 147.361C144.488 147.602 144.706 147.814 144.98 147.996C145.26 148.178 145.579 148.338 145.937 148.475C146.301 148.611 146.682 148.738 147.079 148.855C147.581 148.999 148.069 149.178 148.544 149.393C149.026 149.601 149.469 149.855 149.872 150.154C150.374 150.532 150.774 150.984 151.073 151.512C151.379 152.033 151.532 152.635 151.532 153.318C151.532 153.95 151.399 154.507 151.132 154.988C150.872 155.47 150.52 155.87 150.077 156.189C149.628 156.521 149.107 156.772 148.515 156.941C147.922 157.104 147.297 157.186 146.64 157.186C145.943 157.186 145.256 157.078 144.579 156.863C143.902 156.642 143.313 156.323 142.812 155.906C142.349 155.516 141.982 155.057 141.708 154.529C141.441 154.002 141.305 153.396 141.298 152.713H143.642C143.674 153.149 143.765 153.53 143.915 153.855C144.071 154.174 144.283 154.438 144.55 154.646C144.81 154.861 145.116 155.021 145.468 155.125C145.826 155.229 146.217 155.281 146.64 155.281C146.998 155.281 147.33 155.239 147.636 155.154C147.948 155.07 148.219 154.943 148.446 154.773C148.668 154.611 148.844 154.409 148.974 154.168C149.111 153.927 149.179 153.65 149.179 153.338ZM176.745 150.945H170.729V157H168.366V142.781H177.604V144.725H170.729V149.012H176.745V150.945ZM191.041 150.838C191.041 151.411 190.989 151.964 190.884 152.498C190.787 153.032 190.643 153.536 190.455 154.012C190.253 154.487 190.002 154.926 189.703 155.33C189.403 155.727 189.058 156.069 188.668 156.355C188.29 156.616 187.87 156.821 187.408 156.971C186.952 157.12 186.451 157.195 185.904 157.195C185.337 157.195 184.817 157.117 184.341 156.961C183.873 156.798 183.453 156.577 183.082 156.297C182.704 156.01 182.372 155.665 182.086 155.262C181.806 154.858 181.571 154.415 181.382 153.934C181.2 153.471 181.063 152.98 180.972 152.459C180.881 151.932 180.836 151.391 180.836 150.838V148.963C180.836 148.383 180.884 147.824 180.982 147.283C181.08 146.743 181.226 146.232 181.421 145.75C181.61 145.288 181.841 144.865 182.115 144.48C182.395 144.09 182.724 143.751 183.101 143.465C183.466 143.185 183.879 142.97 184.341 142.82C184.81 142.664 185.324 142.586 185.884 142.586C186.451 142.586 186.972 142.664 187.447 142.82C187.922 142.977 188.349 143.195 188.726 143.475C189.104 143.755 189.433 144.083 189.712 144.461C189.992 144.839 190.227 145.252 190.416 145.701C190.624 146.183 190.78 146.701 190.884 147.254C190.989 147.801 191.041 148.37 191.041 148.963V150.838ZM188.677 148.943C188.671 148.585 188.648 148.234 188.609 147.889C188.576 147.544 188.518 147.215 188.433 146.902C188.336 146.544 188.205 146.219 188.043 145.926C187.886 145.626 187.694 145.372 187.466 145.164C187.265 144.982 187.033 144.839 186.773 144.734C186.513 144.63 186.216 144.578 185.884 144.578C185.565 144.578 185.279 144.63 185.025 144.734C184.771 144.832 184.55 144.969 184.361 145.145C184.133 145.359 183.941 145.617 183.785 145.916C183.629 146.209 183.508 146.538 183.423 146.902C183.345 147.215 183.287 147.547 183.248 147.898C183.215 148.243 183.199 148.592 183.199 148.943V150.838C183.199 151.183 183.215 151.525 183.248 151.863C183.28 152.202 183.336 152.527 183.414 152.84C183.498 153.191 183.612 153.52 183.755 153.826C183.905 154.126 184.084 154.38 184.293 154.588C184.494 154.783 184.726 154.939 184.986 155.057C185.253 155.167 185.559 155.223 185.904 155.223C186.236 155.223 186.535 155.167 186.802 155.057C187.076 154.946 187.31 154.796 187.505 154.607C187.733 154.393 187.922 154.139 188.072 153.846C188.228 153.546 188.352 153.217 188.443 152.859C188.521 152.547 188.576 152.221 188.609 151.883C188.648 151.538 188.671 151.189 188.677 150.838V148.943ZM203.862 142.781L203.871 152.293C203.871 153.029 203.758 153.699 203.53 154.305C203.308 154.904 202.993 155.418 202.582 155.848C202.166 156.277 201.664 156.609 201.079 156.844C200.499 157.078 199.848 157.195 199.125 157.195C198.416 157.195 197.774 157.081 197.202 156.854C196.629 156.619 196.14 156.287 195.737 155.857C195.327 155.428 195.008 154.91 194.78 154.305C194.558 153.699 194.444 153.029 194.438 152.293L194.457 142.781H196.772L196.791 152.293C196.798 152.742 196.853 153.156 196.957 153.533C197.062 153.904 197.215 154.22 197.416 154.48C197.612 154.728 197.849 154.923 198.129 155.066C198.416 155.203 198.748 155.271 199.125 155.271C199.51 155.271 199.848 155.203 200.141 155.066C200.441 154.923 200.691 154.721 200.893 154.461C201.095 154.194 201.248 153.878 201.352 153.514C201.456 153.143 201.515 152.736 201.528 152.293L201.547 142.781H203.862ZM217.005 157H214.652L210.032 147.215L210.023 157H207.65V142.781H210.032L214.622 152.527L214.642 142.781H217.005V157ZM220.93 157V142.781H224.445C225.057 142.781 225.633 142.853 226.174 142.996C226.714 143.133 227.206 143.325 227.648 143.572C228.13 143.826 228.557 144.145 228.928 144.529C229.305 144.913 229.621 145.343 229.875 145.818C230.135 146.313 230.337 146.857 230.48 147.449C230.624 148.042 230.695 148.673 230.695 149.344V150.457C230.695 151.102 230.627 151.714 230.49 152.293C230.36 152.866 230.171 153.39 229.924 153.865C229.683 154.327 229.39 154.747 229.045 155.125C228.706 155.503 228.329 155.825 227.912 156.092C227.443 156.385 226.923 156.609 226.35 156.766C225.783 156.922 225.174 157 224.523 157H220.93ZM223.303 144.695V155.096H224.523C224.94 155.096 225.321 155.047 225.666 154.949C226.018 154.845 226.333 154.699 226.613 154.51C226.9 154.314 227.154 154.07 227.375 153.777C227.603 153.478 227.788 153.136 227.932 152.752C228.055 152.426 228.15 152.072 228.215 151.688C228.28 151.303 228.312 150.893 228.312 150.457V149.324C228.312 148.895 228.28 148.488 228.215 148.104C228.15 147.719 228.055 147.365 227.932 147.039C227.775 146.642 227.567 146.284 227.307 145.965C227.046 145.639 226.737 145.376 226.379 145.174C226.118 145.024 225.826 144.91 225.5 144.832C225.174 144.747 224.823 144.702 224.445 144.695H223.303Z" fill="#B8B8B8"/>
<path d="M85 38C85 24.567 85 17.8457 89.1753 13.6752C93.3458 9.5 100.067 9.5 113.5 9.5H132.5C145.933 9.5 152.654 9.5 156.825 13.6752C161 17.8457 161 24.567 161 38V76C161 89.433 161 96.1543 156.825 100.325C152.654 104.5 145.933 104.5 132.5 104.5H113.5C100.067 104.5 93.3458 104.5 89.1753 100.325C85 96.1543 85 89.433 85 76V38Z" stroke="#6B6B6B" stroke-width="7.125"/>
<path d="M160.516 76H103.515C99.098 76 96.8892 76 95.0747 76.4845C92.6585 77.1324 90.4554 78.405 88.6868 80.1744C86.9183 81.9437 85.6468 84.1474 85 86.564" stroke="#6B6B6B" stroke-width="7.125"/>
<path d="M104 33.25H142M104 49.875H127.75" stroke="#6B6B6B" stroke-width="7.125" stroke-linecap="round"/>
</svg>
