<?xml version="1.0" standalone="no"?>
<!DOCTYPE svg PUBLIC "-//W3C//DTD SVG 20010904//EN"
 "http://www.w3.org/TR/2001/REC-SVG-20010904/DTD/svg10.dtd">
<svg version="1.0" xmlns="http://www.w3.org/2000/svg"
 width="793.000000pt" height="793.000000pt" viewBox="0 0 793.000000 793.000000"
 preserveAspectRatio="xMidYMid meet">

<g transform="translate(0.000000,793.000000) scale(0.100000,-0.100000)"
fill="#000000" stroke="none">
<path d="M7 7913 c-4 -3 -7 -1318 -7 -2922 l0 -2916 1038 -1038 1037 -1037
2925 2 2925 3 3 2920 2 2920 -1037 1037 -1038 1038 -2921 0 c-1606 0 -2924 -3
-2927 -7z m6355 -1560 l818 -818 0 -2392 0 -2393 -2397 0 -2398 0 -817 817
-818 818 0 2392 0 2393 2397 0 2398 0 817 -817z"/>
<path d="M1447 6483 c-4 -3 -7 -117 -7 -252 l0 -246 123 -123 122 -122 705 0
705 0 580 -580 580 -580 175 0 175 0 173 173 c94 95 172 177 172 182 0 6 -348
358 -773 783 l-772 772 -976 0 c-537 0 -979 -3 -982 -7z"/>
<path d="M3156 3170 l-181 -180 780 -780 780 -780 975 2 975 3 3 250 2 249
-122 123 -123 123 -700 0 -700 0 -585 585 -585 585 -170 0 -169 0 -180 -180z"/>
</g>
</svg>
