<svg width="20" height="21" viewBox="0 0 20 21" fill="none" xmlns="http://www.w3.org/2000/svg">
<path d="M7.51429 4.60057L5.95238 3.01614C6.30172 2.12692 6.91006 1.36366 7.69822 0.825721C8.48638 0.287779 9.41785 5.83298e-05 10.3714 3.8147e-06C13 3.8147e-06 15.1333 2.13803 15.1333 4.77238V6.68133H16.0857C16.5909 6.68133 17.0754 6.88245 17.4326 7.24045C17.7898 7.59845 17.9905 8.08399 17.9905 8.59028V15.0807L16.0857 13.1718V8.59028H11.5143L9.60952 6.68133H13.2286V4.77238C13.2286 3.18795 11.9524 1.90895 10.3714 1.90895C8.85714 1.90895 7.61905 3.10205 7.51429 4.60057ZM20 19.5286L18.7905 20.7407L17.4762 19.4236C17.1333 19.8054 16.6381 20.044 16.0857 20.044H4.65714C4.15197 20.044 3.66748 19.8429 3.31027 19.4849C2.95306 19.1269 2.75238 18.6413 2.75238 18.135V8.59028C2.75238 7.53081 3.6 6.68133 4.65714 6.68133H4.7619L0 1.90895L1.21905 0.696771L20 19.5286ZM16.0857 18.03L12.1333 14.069C11.8571 14.7944 11.1714 15.2716 10.3714 15.2716C9.86625 15.2716 9.38177 15.0705 9.02456 14.7125C8.66735 14.3545 8.46667 13.8689 8.46667 13.3627C8.46667 12.5514 8.94286 11.8737 9.66667 11.5969L6.66667 8.59028H4.65714V18.135H16.0857V18.03Z" fill="#AEAEAE"/>
</svg>
