<?xml version="1.0" encoding="UTF-8" standalone="no"?>
<!-- Created with Inkscape (http://www.inkscape.org/) -->

<svg
   width="420mm"
   height="420mm"
   viewBox="0 0 420 420"
   version="1.1"
   id="svg1"
   xml:space="preserve"
   xmlns="http://www.w3.org/2000/svg"
   xmlns:svg="http://www.w3.org/2000/svg"><defs
     id="defs1"><clipPath
       clipPathUnits="userSpaceOnUse"
       id="clipPath6"><path
         d="m 115.21851,88.92182 v 284.01244 a 7.5825231,7.474036 0 0 0 7.58254,7.47553 h 174.39792 a 7.5825231,7.474036 0 0 0 7.58251,-7.47553 v -284.01244 a 7.5825231,7.474036 0 0 0 -7.58251,-7.47554 h -174.39792 a 7.5825231,7.474036 0 0 0 -7.58254,7.47554 z"
         style="display:none;fill:#ffffff;stroke:#000000;stroke-width:2.0126;stroke-dasharray:none"
         id="path6" /><path
         id="lpe_path-effect6"
         style="fill:#ffffff;stroke:#000000;stroke-width:2.0126;stroke-dasharray:none"
         class="powerclip"
         d="m 71.299638,-3.7847437 h 277.400732 v 427.5694937 h -277.400732 z m 43.918872,92.7065637 v 284.01244 a 7.5825231,7.474036 0 0 0 7.58254,7.47553 h 174.39792 a 7.5825231,7.474036 0 0 0 7.58251,-7.47553 v -284.01244 a 7.5825231,7.474036 0 0 0 -7.58251,-7.47554 h -174.39792 a 7.5825231,7.474036 0 0 0 -7.58254,7.47554 z" /></clipPath></defs><path
     d="m 269.90189,29.129552 a 27.297069,26.906516 0 0 0 -27.29707,-26.9079957 h -65.20964 a 27.297069,26.906516 0 0 0 -27.29706,26.9079957 v 14.948069 h -27.29707 a 45.495121,44.844199 0 0 0 -45.495112,44.844198 v 284.012431 a 45.495121,44.844199 0 0 0 45.495112,44.8442 h 174.39792 a 45.495121,44.844199 0 0 0 45.4951,-44.8442 v -284.012431 a 45.495121,44.844199 0 0 0 -45.4951,-44.844198 h -27.29708 z"
     style="fill:#000000;stroke:#000000;stroke-width:2.0126;stroke-dasharray:none"
     id="path186"
     clip-path="url(#clipPath6)" /><path
     d="m 289.61644,290.71991 v 74.73956 h -159.23288 v -74.73956 z"
     style="fill:#000000;stroke:#000000;stroke-width:2.0126;stroke-dasharray:none"
     id="path200" /></svg>
