<?xml version="1.0" encoding="UTF-8"?>
<svg id="Layer_2" data-name="Layer 2" xmlns="http://www.w3.org/2000/svg" viewBox="0 0 609.45 407.49">
  <g id="ITERATION_01_ICONS" data-name="ITERATION 01 ICONS">
    <g>
      <g>
        <circle cx="209.53" cy="153.08" r="50.79"/>
        <circle cx="456.85" cy="255.26" r="50.79"/>
        <circle cx="308.56" cy="247.86" r="16.93"/>
        <circle cx="439.92" cy="163.21" r="16.93"/>
        <circle cx="127.05" cy="165.62" r="16.93"/>
        <circle cx="84.88" cy="271.74" r="16.93"/>
        <circle cx="367.08" cy="196.91" r="33.86"/>
        <circle cx="141.07" cy="254.81" r="33.86"/>
      </g>
      <g>
        <polygon points="609.45 68.24 609.45 35.18 542.32 35.18 542.32 0 474.52 0 474.52 35.18 135.46 35.18 135.46 0 68.01 0 68.01 35.18 0 35.18 0 68.24 609.45 68.24"/>
        <polygon points="0 339.25 0 375.27 39.75 375.27 68.01 375.27 68.01 407.49 135.46 407.49 135.46 375.27 474.52 375.27 474.52 407.49 542.32 407.49 542.32 375.27 609.45 375.27 609.45 339.25 0 339.25"/>
      </g>
    </g>
  </g>
</svg>